<svg width="25" height="25" viewBox="0 0 25 25" fill="none" xmlns="http://www.w3.org/2000/svg">
<g id="ph:house-fill">
<path id="Vector" d="M21.5243 11.585V20.5914C21.5243 20.7905 21.4453 20.9814 21.3045 21.1221C21.1638 21.2629 20.9729 21.3419 20.7738 21.3419H15.5201C15.321 21.3419 15.1301 21.2629 14.9894 21.1221C14.8486 20.9814 14.7696 20.7905 14.7696 20.5914V15.7129C14.7696 15.6134 14.73 15.518 14.6597 15.4476C14.5893 15.3772 14.4938 15.3377 14.3943 15.3377H10.6416C10.5421 15.3377 10.4467 15.3772 10.3763 15.4476C10.3059 15.518 10.2664 15.6134 10.2664 15.7129V20.5914C10.2664 20.7905 10.1873 20.9814 10.0466 21.1221C9.9058 21.2629 9.7149 21.3419 9.51585 21.3419H4.26213C4.06307 21.3419 3.87217 21.2629 3.73142 21.1221C3.59067 20.9814 3.5116 20.7905 3.5116 20.5914V11.585C3.51178 11.187 3.67005 10.8053 3.9516 10.524L11.4569 3.01865C11.7384 2.73736 12.12 2.57935 12.518 2.57935C12.9159 2.57935 13.2976 2.73736 13.579 3.01865L21.0843 10.524C21.3659 10.8053 21.5242 11.187 21.5243 11.585Z" fill="#B8C7D7"/>
</g>
</svg>
