<svg width="25" height="25" viewBox="0 0 25 25" fill="none" xmlns="http://www.w3.org/2000/svg">
<g id="material-symbols:contract-outline-rounded">
<path id="Vector" d="M6.51372 22.286C5.6798 22.286 4.97096 21.9941 4.38722 21.4104C3.80347 20.8267 3.5116 20.1178 3.5116 19.2839V18.2832C3.5116 17.7328 3.70774 17.2618 4.10001 16.8702C4.49229 16.4786 4.96329 16.2824 5.51301 16.2818H6.51372V4.27327C6.51372 3.72288 6.70986 3.25188 7.10214 2.86027C7.49442 2.46866 7.96542 2.27252 8.51514 2.27185H19.5229C20.0733 2.27185 20.5447 2.46799 20.9369 2.86027C21.3292 3.25254 21.525 3.72354 21.5243 4.27327V19.2839C21.5243 20.1178 21.2325 20.8267 20.6487 21.4104C20.065 21.9941 19.3561 22.286 18.5222 22.286H6.51372ZM18.5222 20.2846C18.8058 20.2846 19.0436 20.1885 19.2357 19.9964C19.4279 19.8043 19.5236 19.5668 19.5229 19.2839V4.27327H8.51514V16.2818H15.5201C16.0705 16.2818 16.5418 16.4779 16.9341 16.8702C17.3264 17.2625 17.5222 17.7335 17.5215 18.2832V19.2839C17.5215 19.5674 17.6176 19.8053 17.8097 19.9974C18.0019 20.1895 18.2394 20.2853 18.5222 20.2846ZM10.5166 9.27681C10.233 9.27681 9.99552 9.18074 9.80405 8.98861C9.61258 8.79647 9.51651 8.55897 9.51585 8.2761C9.51518 7.99323 9.61125 7.75573 9.80405 7.5636C9.99685 7.37146 10.2344 7.27539 10.5166 7.27539H17.5215C17.805 7.27539 18.0429 7.37146 18.235 7.5636C18.4272 7.75573 18.5229 7.99323 18.5222 8.2761C18.5216 8.55897 18.4255 8.7968 18.234 8.98961C18.0425 9.18241 17.805 9.27814 17.5215 9.27681H10.5166ZM10.5166 12.2789C10.233 12.2789 9.99552 12.1829 9.80405 11.9907C9.61258 11.7986 9.51651 11.5611 9.51585 11.2782C9.51518 10.9954 9.61125 10.7579 9.80405 10.5657C9.99685 10.3736 10.2344 10.2775 10.5166 10.2775H17.5215C17.805 10.2775 18.0429 10.3736 18.235 10.5657C18.4272 10.7579 18.5229 10.9954 18.5222 11.2782C18.5216 11.5611 18.4255 11.7989 18.234 11.9917C18.0425 12.1845 17.805 12.2803 17.5215 12.2789H10.5166ZM6.51372 20.2846H15.5201V18.2832H5.51301V19.2839C5.51301 19.5674 5.60908 19.8053 5.80122 19.9974C5.99335 20.1895 6.23085 20.2853 6.51372 20.2846ZM6.51372 20.2846H5.51301H15.5201H6.51372Z" fill="#B8C7D7"/>
</g>
</svg>
