<svg width="27" height="27" viewBox="0 0 27 27" fill="none" xmlns="http://www.w3.org/2000/svg">
<g id="material-symbols:search">
<path id="Vector" d="M21.5927 23.1351L14.6522 16.1946C14.1014 16.6352 13.4679 16.9841 12.7518 17.2411C12.0358 17.4982 11.2738 17.6267 10.4659 17.6267C8.46453 17.6267 6.7709 16.9334 5.385 15.5468C3.9991 14.1601 3.30579 12.4665 3.30505 10.4659C3.30432 8.46526 3.99764 6.77163 5.385 5.385C6.77237 3.99837 8.466 3.30505 10.4659 3.30505C12.4658 3.30505 14.1598 3.99837 15.5479 5.385C16.936 6.77163 17.6289 8.46526 17.6267 10.4659C17.6267 11.2738 17.4982 12.0358 17.2411 12.7518C16.9841 13.4679 16.6352 14.1014 16.1946 14.6522L23.1351 21.5927L21.5927 23.1351ZM10.4659 15.4234C11.843 15.4234 13.0137 14.9416 13.978 13.978C14.9423 13.0144 15.4241 11.8437 15.4234 10.4659C15.4227 9.08807 14.9409 7.91773 13.978 6.95488C13.0151 5.99202 11.8444 5.50986 10.4659 5.50839C9.08734 5.50692 7.917 5.98908 6.95488 6.95488C5.99275 7.92067 5.51059 9.09101 5.50839 10.4659C5.50618 11.8408 5.98835 13.0115 6.95488 13.978C7.92141 14.9445 9.09174 15.4263 10.4659 15.4234Z" fill="#B8C7D7"/>
</g>
</svg>
